<?xml version="1.0" encoding="UTF-8"?>
<svg id="_レイヤー_1" xmlns="http://www.w3.org/2000/svg" version="1.1" viewBox="0 0 939.04 962.57">
  <!-- Generator: Adobe Illustrator 30.2.1, SVG Export Plug-In . SVG Version: 2.1.1 Build 1)  -->
  <defs>
    <style>
      .st0 {
        fill: #ef8418;
      }

      .st1 {
        fill: #fff;
      }
    </style>
  </defs>
  <g>
    <path class="st0" d="M226.41,790.19c-4,0-7.88-1.18-11.2-3.42-2.47-1.66-8.14-4.64-13.62-7.52-19-9.97-33.14-17.82-40.9-27.34-23-20.01-42.84-28.87-58.82-36.01-19.6-8.75-39.87-17.8-43.07-43.91-2.16-17.6,3.92-40.35,23.11-85.65-6.56-8.89-14.41-23.78-5.4-42.54.14-16.33.03-39.36-6.86-52.11-.15-.28-.28-.53-.4-.78-6.02-12.42-3.5-21.68-.33-27.26,1.37-2.41,3.08-4.53,5.12-6.36-1.44-5.18-1.77-11.64,2.02-18.19.74-1.28,1.59-2.46,2.53-3.55-2.9-5.14-6.17-11.6-7.18-19.36-6.06-6.66-10.03-14.85-11.11-22.92l-.21-.32c-8.89-13.06-21.05-30.95-18.49-54.05.68-6.16,4.09-11.56,9.36-14.83,5-3.1,10.25-4.68,15.59-4.68,3.5,0,6.85.66,9.97,1.95,1.58-.71,3.25-1.22,4.98-1.5l.44-.07c1.39-1.3,2.91-2.43,4.53-3.39.7-5.31,3.02-10.35,6.81-14.57,3.8-4.22,9.23-6.64,14.91-6.64.81,0,1.62.05,2.42.15,1.43-1.26,3.18-2.61,5.27-3.82,1.12-4.41,3.29-8.24,6.47-11.44,3.74-3.76,8.92-5.91,14.22-5.91,1.45,0,2.91.16,4.33.47.25.06.47.09.66.12.12-.56.21-1.39.13-2.46-.37-5.5,1.56-10.97,5.3-15,3.74-4.04,9.04-6.38,14.55-6.43,1.16-.01,2.13-.03,2.93-.06,2.05-2.73,4.78-4.91,7.95-6.31,2.53-2.91,5.85-5.03,9.55-6.11,1.77-6.97,6.72-21.63,25.91-24.87,7.36-13.37,15.93-25.76,33.99-25.76,5.2,0,10.39,1.14,16.03,3.02,4.34-4.62,10.47-7.14,17.82-7.14,3.14,0,6.84.43,11.89,1.19,1.66-.4,3.35-.6,5.04-.6,6.05,0,11.82,2.6,15.82,7.12,4.32,4.88,5.56,10.32,5.65,15.55,22.62,3.36,42.12,6.3,48.68,21.8,2.66,6.29,2.36,13.33-.71,19.48.57.13,1.13.28,1.68.46,3.32,1.07,6.25,2.95,8.55,5.42,4.02-3.23,9.15-5.69,15.69-5.69,4,0,7.86.98,11.41,2.86,5.24-1.69,11-2.57,16.96-2.57,9.64,0,19.08,2.28,26.57,6.43,8.48,4.69,12.39,14.77,9.3,23.95-.56,1.66-.83,2.65-.36,4.58,1.62-.1,2.75-.25,3.51-.38.56-1.88,1.35-5.92,2.01-14.51.08-7.91,3.44-14.24,6.66-18.89-6.61-12.36-4.75-28.38-3.21-41.69.46-4.01,1.16-10.05.97-11.97-.39-3.93.37-7.85,2.21-11.34,4.1-7.79,11.44-12.44,19.62-12.44,7.66,0,14.73,4.17,18.91,11.14,1.09,1.83,2.09,4.13,2.91,6.65,9.45.89,24.45,4.35,28.99,20.87.41,1.5.65,3.05.71,4.6.12,3.42.22,6.79.31,10.13v.29c.14,4.84.27,9.45.47,13.99,4.04,1.93,8.21,4.58,12.47,7.93,3.72,2.92,6.87,5.88,9.41,8.81,3.66,1.4,6.84,3.54,9.49,6.36,1.12-.03,2.22-.06,3.31-.09,18.22-.45,18.8-1.93,20.08-5.17,2.51-6.38,8.03-10.98,14.75-12.32,1.28-.26,2.6-.39,3.92-.39,5.41,0,10.66,2.23,14.42,6.12,7.6,7.86,16.32,11.37,28.27,11.37,4.39,0,9.33-.46,15.11-1.41,1.07-.18,2.17-.27,3.26-.27.62,0,1.24.03,1.85.09,8.93.83,19.13.97,29.92,1.13,23.67.34,48.15.7,69.56,7.91,26.49,8.93,43.12,27.49,48.21,53.76,20.28,31.73,23.13,45.27,21.53,61.63-.53,5.47-1,10.19,9.2,29.49,4.45,7.38,2.49,13.87.76,19.6l-6,19.9c-.12.42-.28.87-.45,1.32-.73,1.94-1.44,3.78-2.11,5.53,13.13,1.17,26.73,5.5,40.53,12.9,6.85,3.67,10.99,11.06,10.55,18.83-.79,13.9-4.95,22.36-8.24,27.83,1.08,1.51,2.68,3.6,5.02,6.38,5.67,5.27,8.04,12.38,6.52,19.65-1.07,5.11-3.84,9.34-7.96,12.29-1.52,3.57-3.29,6.7-4.79,9.34-1.14,2-1.83,3.32-2.25,4.18,3.46,7.26,2.28,15.99-3.11,22.03-.43.82-1.37,3.34-2.29,10.68l-.03.23c-1.13,8.94-8.15,16.07-17.07,17.35-1.34.19-2.71.29-4.07.29-13.43,0-22.37-8.71-29.56-15.71-1.63-1.59-4.12-4.01-6.27-5.74-3.35,4.19-8.64,8.61-16.67,9.18-7.63,5.24-14.91,7.38-22.16,8.54-6.87,20.78-15.33,28.36-28.66,34.98-3.53,1.75-6.09,3.02-9.39,6.25-3.77,3.69-8.76,5.73-14.03,5.73-.57,0-1.14-.03-1.71-.07-4.24-.37-8.58-.72-12.98-1.07l-.42-.03c-17.31-1.4-35.15-2.83-51.53-5.51-2.48,4.17-6.46,7.44-11.34,8.94-8.92,2.74-17.12,4.07-25.07,4.07-27.13,0-44.76-16.02-58.94-28.9-1.73-1.57-3.16-3.42-4.25-5.48-2.7-5.11-4.45-10.96-6.15-16.61-.89-2.96-1.65-5.36-2.28-7.2-6.32-1.77-11.49-6.57-13.62-13.04-2.99-9.07-3.94-11.34-4.24-11.88,0,0-.43-.62-.57-.84-4.31.13-8.96.46-13.64.85-1.9,3.33-4.09,5.71-5.42,7.15,0,0-.01.01-.02.02-3.91,14.43-12.63,25.2-25.34,31.23-11.48,5.45-24.25,6.19-35.22,6.19-3.62,0-7.24-.09-10.74-.17-3.35-.08-6.74-.17-9.9-.17-3.38,0-12.35,0-17.82,2.02-.3.11-.58.21-.87.3-31.33,9.91-56.25,21.25-76.22,34.68-23.3,15.66-39.52,33.87-49.59,55.65-3.17,6.86-9.84,11.32-17.39,11.63-.28.01-.55.02-.83.02-7.21,0-13.9-3.9-17.46-10.17-3.73-6.59-11.06-6.92-12.49-6.92-3.38,0-5.92,1.18-6.86,2.28-.5.59-.78,1.47-.85,2.63,2.55,4.57,5.86,11.28,8.39,18.06,2.43,6.53,9.84,26.4-2.64,39.67-3.78,4.02-9.11,6.32-14.62,6.32Z"/>
    <path class="st1" d="M483.69,182.81c1.9,0,6.68.59,9.96,6.07,1.36,2.26,2.87,6.68,3.45,11.25,1.01.07,2.07.11,2.94.15,7.32.32,20.93.91,24.4,13.53.2.72.31,1.46.34,2.21.13,3.49.22,6.93.31,10.33.2,7.16.39,14.05.85,21.02,5.94,1.59,11.79,5.45,16.07,8.81,3.3,2.6,7.04,5.96,9.71,9.62,3.31.77,6.03,2.31,8.15,4.62.99,1.08,1.75,2.22,2.33,3.39,2.94-.17,5.86-.24,8.73-.31,17.86-.44,25.53-1.63,29.53-11.77,1.2-3.05,3.87-5.27,7.08-5.91.63-.12,1.26-.19,1.88-.19,2.58,0,5.09,1.04,6.92,2.94,9.6,9.92,20.96,14.55,35.77,14.55,4.96,0,10.46-.51,16.81-1.55.52-.09,1.04-.13,1.56-.13.3,0,.59.01.89.04,9.33.86,19.72,1.01,30.73,1.17,22.87.33,46.52.67,66.38,7.37,23.68,7.98,37.68,24.05,41.64,47.77,21.46,33.23,22.28,44.09,21.05,56.72-.67,6.87-1.3,13.37,10.52,35.68,2.22,3.52,1.34,6.42-.16,11.42l-2.44,8.11-3.56,11.79c-.06.21-.13.42-.21.63-2.4,6.33-4.46,11.62-6.11,15.86-.52,1.34-1.04,2.67-1.53,3.94,2.39-.27,5.06-.46,8.01-.46,13.62,0,28.04,4.03,42.88,11.99,3.3,1.77,5.28,5.3,5.07,9.04-.78,13.66-5.29,20.77-8.27,25.47-.58.92-1.36,2.15-1.61,2.73.17.85,1.38,4.2,9.56,13.88,4.37,3.77,4.29,7.97,3.82,10.23-.52,2.46-2.03,5.51-6.17,7.25-1.4,4.25-3.52,7.99-5.44,11.38-4.51,7.94-4.97,9.88-3.07,12.94,2.28,3.69,1.81,8.45-1.14,11.62-3.1,3.33-4.28,12.66-4.72,16.17l-.03.24c-.54,4.3-3.9,7.71-8.19,8.32-.86.12-1.73.18-2.59.18-9.19,0-15.84-6.48-22.28-12.75-5.42-5.28-11.03-10.74-16.64-10.74h0c-.48,0-.96.04-1.45.11-.2.36-.4.74-.57,1.05-1.74,3.28-5.37,10.11-13.28,10.11-.55,0-1.09-.04-1.63-.11-9.15,7.25-17.26,8.53-26.82,9.52-6.8,24.33-14.27,29.66-25.28,35.13-3.89,1.93-7.56,3.76-12.04,8.14-1.81,1.77-4.23,2.75-6.74,2.75-.28,0-.56-.01-.83-.04-4.37-.38-8.87-.74-13.43-1.11-19.02-1.53-38.68-3.12-55.98-6.32-.41,0-.81,0-1.2,0-1.22,0-2.14.04-2.83.09.42,4.53-2.38,8.76-6.76,10.1-7.91,2.43-15.11,3.61-22.01,3.61-23.1,0-38.41-13.91-51.92-26.19-.83-.75-1.52-1.64-2.04-2.63-2.23-4.21-3.76-9.33-5.38-14.75-1.23-4.09-3.39-11.33-5.24-14.01-.53.09-1.07.13-1.6.13-4.05,0-7.81-2.57-9.14-6.62-4.08-12.36-4.75-13.35-5.68-14.7-.91-1.33-1.85-2.78-3.15-5.23-.66-.01-1.35-.02-2.05-.02-7.7,0-16.53.75-24.71,1.53-1.08,4.71-4.04,7.92-5.86,9.9-.78.85-1.49,1.61-1.9,2.26-2.85,12.65-9.67,21.61-20.26,26.64-9.61,4.56-20.94,5.18-30.75,5.18-3.5,0-7.07-.09-10.52-.17-3.35-.08-6.82-.17-10.13-.17-6.62,0-15.03.3-21.43,2.66-.14.05-.28.1-.43.15-32.27,10.21-58.07,21.97-78.87,35.96-24.93,16.76-42.35,36.36-53.24,59.93-1.52,3.28-4.74,5.43-8.35,5.58-.13,0-.27,0-.4,0-3.46,0-6.66-1.86-8.38-4.88-5.1-9-14.49-12.21-21.57-12.21-6.1,0-11.64,2.23-14.81,5.96-2.65,3.12-3.73,7.28-3.23,12.36,2.71,4.52,6.39,11.87,8.94,18.74,3.25,8.72,6.74,21.21-.46,28.88-1.88,2-4.44,3.03-7.02,3.03-1.86,0-3.73-.54-5.37-1.64-2.95-1.98-8.63-4.97-14.66-8.13-18.26-9.58-31.83-17.1-38.1-25.3-24.49-21.49-45.35-30.81-62.15-38.31-18.51-8.26-34.49-15.4-36.97-35.65-1.97-16.09,4.55-38.9,24.78-86-7.74-9.33-16.22-21.63-7.03-38.36.18-18.78.31-44.09-8.08-59.63-.07-.12-.13-.25-.19-.37-3.25-6.7-3.46-12.6-.65-17.55,2.15-3.78,5.52-5.99,9.21-7.33-2.85-5.09-5.58-11.13-2.1-17.16,1.19-2.05,3.33-4.38,7.14-5.56-.84-1.84-1.99-3.88-3.36-6.25-3.32-5.77-7.28-12.65-7.33-20.93-6.04-5.52-10.8-13.88-11.09-21.94-.56-.84-1.14-1.69-1.74-2.56-8.41-12.37-18.88-27.76-16.74-47.03.33-2.94,1.98-5.56,4.49-7.12,3.32-2.06,6.72-3.11,10.09-3.11,3.99,0,7.59,1.43,10.5,4.02.13-.17.26-.33.4-.49,1.49-1.72,3.52-2.85,5.74-3.21.29-.05,2.11-.36,4.02-.69,2.39-3.16,5.9-5.36,9.89-6.02-1.21-5.29.17-10.45,3.94-14.64,1.88-2.08,4.5-3.19,7.16-3.19,1.52,0,3.06.36,4.48,1.11.29.15.53.26.71.33.53-.43,1.27-1.18,1.81-1.71,2.13-2.11,5.41-5.36,10.22-6.57.05-3.99,1.09-8.08,4.33-11.35,1.83-1.84,4.29-2.84,6.83-2.84.69,0,1.39.08,2.08.23,1.27.28,2.48.42,3.61.42,2.83,0,5.11-.9,6.77-2.68,2.27-2.43,3.39-6.43,3.08-10.99-.18-2.65.74-5.25,2.54-7.2s4.33-3.06,6.98-3.09c1.89-.02,7.21-.06,9.57-.83.87-3.41,3.56-6.12,7.04-6.97.24-.06.48-.11.71-.15.19-.39.41-.76.66-1.12,1.55-2.27,4-3.78,6.73-4.13,4.02-.52,4.17-.54,5.38-5.67,1.43-6.05,4.36-18.47,22.72-19.1,8.12-15.2,13.82-25.14,27.43-25.14,5.53,0,11.65,1.81,20.47,5.4.91-2.9,3.55-9.52,13.38-9.52,2.78,0,6.48.46,12.66,1.43,1.23-.49,2.67-.84,4.27-.84,3.06,0,5.98,1.31,8.01,3.6,3.93,4.44,3.23,10.16,2.42,16.79-.02.2-.05.43-.08.66,2.88.51,6.47,1.04,9.44,1.48,22.61,3.36,36.67,5.91,40.76,15.58,1.77,4.18,1.17,8.84-1.66,12.78-.24.34-.51.66-.79.96-3.47,3.72-7.23,5.53-11.5,5.53-1.85,0-3.34-.35-4.44-.61-.34-.08-.8-.19-.9-.2,0,0-.99.14-3.26,1.71l-14.63,10.11c-1.69,1.22-4.97,3.59-6.9,5.47.42.33.81.7,1.16,1.09,7.13-3.77,15.41-8.32,17.17-9.46,1.69-1.21,3.65-1.8,5.59-1.79,2.83,0,5.63,1.24,7.53,3.62,1.54,1.92,2.55,2.52,2.8,2.57,1.58,0,5.76-2.74,8.81-4.74l.17-.11c1.59-1.04,3.43-1.58,5.28-1.58.99,0,1.99.15,2.95.46,2.77.89,4.99,2.99,6.04,5.7,1.48,3.84,2.73,6.5,3.7,8.31.32-.46.62-.91.88-1.29,3.57-5.27,8.45-12.49,16.82-12.49,3.67,0,7.04,1.4,10.05,4.17,5.2-2.51,11.44-3.88,18.31-3.88,7.9,0,15.55,1.82,21.52,5.13,4.07,2.25,5.95,7.09,4.47,11.5-2.26,6.71-.97,10.71,2.35,18.46.8.01,1.56.02,2.29.02,11.8,0,14.82-1.75,16.13-3.28,2.95-3.42,4.04-12.87,4.71-21.78-.05-7.29,4.38-12.97,7.64-17.15.47-.6,1.05-1.35,1.57-2.05-.11-.1-.22-.21-.32-.31-9.1-9.22-7.19-25.72-5.51-40.28.64-5.49,1.29-11.16.99-14.2-.19-1.88.18-3.77,1.06-5.45,3.27-6.2,8.36-6.87,10.39-6.87M483.69,161.94c-12.13,0-22.92,6.74-28.86,18.02-2.75,5.23-3.92,11.09-3.39,16.97.02,1.78-.57,6.91-.93,9.99-1.43,12.35-3.24,27.96,1.71,41.83-1.3-1.03-2.71-1.97-4.2-2.8-9.01-4.99-20.24-7.73-31.62-7.73-5.66,0-11.07.64-16.17,1.91-3.87-1.46-7.97-2.21-12.19-2.21-4.93,0-9.27.98-13.08,2.54.46-5.34-.37-10.76-2.52-15.85-7.92-18.7-27.38-23.46-49.05-26.89-1.15-4.47-3.29-9.03-7.08-13.31-5.99-6.76-14.6-10.64-23.63-10.64-1.79,0-3.56.15-5.32.45-4.64-.66-8.27-1.04-11.61-1.04-7.75,0-14.66,2.1-20.27,5.96-4.54-1.17-8.99-1.84-13.58-1.84-12.13,0-22.54,4.51-30.95,13.42-3.75,3.97-6.83,8.49-9.85,13.65-10.12,2.88-16.6,8.46-20.53,13.29-3.6,4.42-5.77,9.07-7.15,12.97-2.66,1.4-5.11,3.18-7.26,5.31-2.32,1.24-4.46,2.77-6.37,4.54-7.76.5-15.13,3.99-20.44,9.71-3.63,3.92-6.14,8.73-7.33,13.87-6.41.98-12.45,4.01-17.05,8.64-2.72,2.73-5.75,6.68-7.84,12.06-8.24.29-16.06,3.93-21.6,10.08-4.07,4.52-6.91,9.74-8.43,15.29-.23.06-.46.12-.69.19-3.18-.89-6.49-1.35-9.85-1.35-7.33,0-14.42,2.1-21.1,6.25-8,4.97-13.19,13.18-14.23,22.55-2.88,25.91,9.95,45.91,19.16,59.49,1.61,8.29,5.52,16.49,11.2,23.5,1.06,5.37,2.9,10.1,4.87,14.16-3.66,6.84-4.34,13.46-3.67,19.22-1.19,1.52-2.16,3.01-2.93,4.37-3.61,6.35-8.41,19.59.01,36.97.2.41.4.81.62,1.21,5.34,9.89,5.69,30.34,5.61,44.83-8.26,19.25-2.39,35.39,4.04,45.94-18.49,44.31-24.02,66.68-21.68,85.82,3.92,31.96,29.01,43.17,49.18,52.17,15.98,7.14,34.06,15.21,55.6,33.81,9.07,10.69,23.87,18.93,43.47,29.22,4.77,2.5,10.7,5.61,12.7,6.96,5.05,3.4,10.94,5.2,17.02,5.2,8.38,0,16.48-3.5,22.22-9.61,5.06-5.38,10.86-14.92,9.76-29.86-.54-7.32-2.61-14.09-4.35-18.97,5.3,4.18,11.94,6.56,18.89,6.56.42,0,.84,0,1.25-.03,11.48-.47,21.61-7.25,26.43-17.68,9.25-20,24.27-36.8,45.94-51.37,19.13-12.86,43.19-23.78,73.53-33.38.45-.14.89-.29,1.33-.45,1.72-.63,5.56-1.38,14.23-1.38,3.05,0,6.39.08,9.61.16,3.6.09,7.29.18,11.04.18,12.14,0,26.35-.85,39.7-7.19,14.83-7.04,25.19-19.23,30.22-35.46.59-.68,1.25-1.47,1.93-2.36.32-.02.63-.04.95-.07.47,1.37,1.04,3.07,1.74,5.19,2.59,7.84,8.11,14.07,15.11,17.64.29.96.54,1.78.7,2.31,1.84,6.14,3.74,12.49,6.92,18.51,1.66,3.14,3.83,5.94,6.46,8.33,14.68,13.34,34.78,31.61,65.95,31.61,9,0,18.21-1.48,28.13-4.53,4.91-1.51,9.22-4.2,12.67-7.68,15.02,2.16,30.86,3.44,46.29,4.68,4.56.37,9,.73,13.31,1.1.88.08,1.76.11,2.64.11,8.02,0,15.6-3.09,21.33-8.7,2.12-2.08,3.47-2.75,6.73-4.36,13.92-6.91,24.06-15.42,31.82-35.24,5.82-1.4,11.83-3.65,18.04-7.55,4.09-.65,8.55-2.16,12.92-5.11,7.63,7.4,18.94,17.75,35.9,17.75,1.85,0,3.72-.13,5.55-.39,13.55-1.94,24.22-12.78,25.94-26.36l.03-.26c.47-3.68.87-5.68,1.16-6.76,5.8-7.56,7.66-17.36,5.29-26.39,1.29-2.28,2.76-4.88,4.17-7.85,4.89-4.32,8.28-10.07,9.66-16.67,2.22-10.57-1.17-21.24-9.1-28.94-.09-.1-.17-.21-.26-.31,2.87-6.15,5.6-14.62,6.26-26.16.67-11.8-5.62-23.04-16.04-28.62-10.61-5.69-21.16-9.71-31.56-12.05l2.2-7.29,2.44-8.11c1.87-6.21,4.97-16.49-1.65-27.73-8.61-16.32-8.27-19.75-7.92-23.37,1.8-18.48-1.09-33.46-22.08-66.62-6.26-29.11-25.1-49.69-54.71-59.68-22.96-7.74-48.27-8.1-72.75-8.46-10.59-.15-20.59-.3-29.1-1.09-.93-.09-1.88-.13-2.82-.13-1.65,0-3.32.14-4.95.41-5.21.86-9.6,1.28-13.42,1.28-9.13,0-15.14-2.37-20.77-8.19-5.71-5.91-13.71-9.3-21.92-9.3-2,0-4,.2-5.96.59-9.46,1.88-17.34,8.03-21.49,16.62-2.2.3-5.77.51-10.67.65-2.2-1.76-4.61-3.27-7.19-4.49-2.64-2.82-5.71-5.61-9.19-8.35-2.92-2.3-5.83-4.32-8.72-6.06-.09-2.6-.16-5.23-.23-7.93-.1-3.48-.19-6.97-.32-10.52-.08-2.36-.45-4.72-1.07-7-3.28-11.94-11.67-20.96-23.61-25.4-2.75-1.02-5.47-1.72-8.04-2.22-.43-.88-.88-1.71-1.35-2.49-6.08-10.15-16.5-16.21-27.86-16.21h0Z"/>
  </g>
  <g>
    <path class="st1" d="M255.14,503.81c0,11.67,0,24.97-15.17,24.97s-15.4-13.3-15.4-24.97v-48.31c-17.74,29.64-21.94,32.21-29.64,32.21-8.63,0-14.94-6.77-14.94-15.17,0-1.87,0-4.43,4.67-10.73,17.27-23.34,25.44-34.31,39.91-59.98v-4.9h-19.14c-10.27,0-14.47,0-17.74-2.1-6.53-4.43-7-10.04-7-12.14,0-6.3,3.97-10.27,6.77-12.14,3.5-2.1,7.7-2.33,17.97-2.33h19.14v-17.74c0-11.67,0-24.97,15.4-24.97s15.17,13.3,15.17,24.97v18.44c4.43,2.33,4.43,6.53,4.43,7.47,0,1.63-.47,2.8-.93,4.2,20.3-21,44.34-28.24,64.18-28.24,59.51,0,59.51,57.88,59.51,77.95,0,8.17-.23,28.01-4.43,48.31,12.14,12.14,15.87,16.8,15.87,23.34,0,11.43-8.4,15.87-14.94,15.87-7.24,0-10.74-4.2-15.64-10.27-10.27,12.14-25.67,18.67-41.54,18.67-25.44,0-43.17-15.87-43.17-37.81,0-19.84,15.17-32.67,40.61-32.67,14.7,0,22.87,3.03,30.34,5.6,2.1-13.54,2.1-31.27,2.1-33.14,0-17.27,0-46.44-31.74-46.44-23.57,0-51.81,23.8-64.64,39.91v82.15ZM317.92,481.4c-10.5,0-11.67,6.3-11.67,8.4,0,8.17,12.6,8.87,15.87,8.87,5.6,0,15.17-.93,19.37-9.8-9.8-6.77-19.14-7.47-23.57-7.47Z"/>
    <path class="st1" d="M475.98,428.04c0,6.6-11.66,20.65-23.88,20.65-17.98,0-18.54-26.4-18.54-37.5,0-9.13.98-29.77,2.81-34.55.98-2.81,3.93-5.62,8.29-5.62,7.87,0,11.1,4.49,11.1,9.27,0,2.11-1.82,11.38-2.11,13.34-.7,6.32-1.12,13.06-1.12,17.42,0,3.65.14,16.15,4.07,16.15,1.55,0,2.11-.7,5.34-4.78.84-1.12,2.67-3.37,5.2-3.37.56,0,1.68,0,2.95.56,4.91,1.97,5.9,5.62,5.9,8.43ZM509.27,471.72c-13.2,12.22-35.81,16.15-38.76,16.15-7.58,0-9.41-6.46-9.41-10.11,0-4.49,2.11-8.15,7.58-9.27,12.22-2.67,26.12-5.62,34.55-19.38,4.07-6.74,6.04-12.92,6.04-34.97,0-3.23-.28-17.98-1.12-24.58-.28-1.68-1.12-8.43-1.12-9.69,0-5.34,4.21-9.27,10.53-9.27,3.93,0,6.6,2.67,7.58,4.49,2.25,4.21,3.23,25.98,3.23,31.74,0,27.81-.7,47.89-19.1,64.88Z"/>
    <path class="st1" d="M660.52,382.12c7.3-.14,15.17-.14,15.17,9.27s-8.57,8.99-14.89,9.13l-18.82.28.14,9.97,21.35-.14c6.04,0,8.71-.14,10.67,1.12,3.51,2.25,4.35,5.34,4.35,7.58,0,3.79-2.39,6.32-4.21,7.44-1.96,1.4-4.49,1.26-10.67,1.4l-21.35.28.14,17.56c12.22,3.23,36.66,14.61,36.66,25.7,0,4.78-4.49,10.25-10.11,10.25-3.37,0-4.07-.98-11.66-7.72-3.93-3.65-9.83-7.16-14.89-8.99-.98,14.47-11.8,24.16-31.32,24.16-24.16,0-32.44-13.9-32.44-24.86,0-18.82,21.06-23.88,34.13-23.88,3.93,0,7.3.42,11.52.84l-.14-12.92-32.87.42c-7.02.14-15.03.14-15.03-8.85s7.87-8.99,14.89-8.99l32.72-.28-.14-9.97-29.49.28c-7.73.14-9.69.14-12.36-2.53-1.69-1.68-2.67-3.93-2.67-6.6,0-8.99,7.86-8.99,14.89-9.13l29.35-.42c0-8.57,0-9.55,1.12-11.38,1.69-2.53,4.64-3.93,8.01-3.93,9.27,0,9.27,8.15,9.27,15.17l18.68-.28ZM612.49,456.98c-.42,0-14.47,0-14.47,7.58,0,4.92,6.88,7.02,12.78,7.02,4.78,0,12.64-1.69,13.48-12.5-3.23-1.12-6.74-2.11-11.8-2.11Z"/>
  </g>
</svg>