<?xml version="1.0" encoding="UTF-8"?>
<svg id="_レイヤー_1" data-name="レイヤー_1" xmlns="http://www.w3.org/2000/svg" version="1.1" viewBox="0 0 901.75 931.34">
  <!-- Generator: Adobe Illustrator 29.4.0, SVG Export Plug-In . SVG Version: 2.1.0 Build 152)  -->
  <defs>
    <style>
      .st0 {
        fill: #503771;
      }

      .st1 {
        fill: #e9507b;
        stroke-linecap: round;
        stroke-width: 9px;
      }

      .st1, .st2 {
        stroke-linejoin: round;
      }

      .st1, .st3 {
        stroke: #4d356d;
      }

      .st4 {
        fill: #ec73a8;
      }

      .st2 {
        stroke: #fff;
        stroke-width: 20px;
      }

      .st2, .st5, .st3 {
        fill: #fff;
      }

      .st3 {
        stroke-miterlimit: 10;
        stroke-width: 8px;
      }
    </style>
  </defs>
  <path class="st2" d="M834.05,366.73c-5.96-10.72-23.18-16.48-38.39-12.85-1.77.42-4.11.9-6.8,1.45-10.11,2.07-25.39,5.19-38.85,11.16-36.56,16.21-48.35,12.5-51.72,10.15-2.79-1.94-2.69-4.81-2.67-5.04.06-.58,0-1.17-.16-1.73-14.79-50.43-35.95-84.9-62.89-102.45-18.83-12.27-34.1-11.71-37.32-11.42,4.82-12.92,8.86-27.55,12.09-43.85,6.27-31.65,7.79-61.29,8.44-73.94.12-2.39.22-4.29.31-5.4l.07-.98c2.07-28.81-15.53-55.11-42.8-63.94-17.08-5.54-33.43-5.63-48.58-.26-19.8,7.01-37.03,23.27-51.2,48.34-22.1,39.07-39.93,57.93-50.99,66.87-10.34,8.35-16.77,9.77-18.3,10-5.95-1.11-46.11-7.17-113.16,16.1-32.75,11.37-61.57,12.1-83.35,2.14-.89-.41-1.74-.82-2.57-1.25-.08-.04-.16-.08-.23-.12-.78-.4-1.54-.82-2.27-1.23-.11-.06-.22-.12-.33-.19-.71-.41-1.39-.82-2.05-1.23-.12-.07-.23-.15-.35-.22-.65-.41-1.27-.82-1.87-1.23-.11-.08-.22-.15-.33-.23-.6-.41-1.17-.83-1.72-1.24-.09-.07-.18-.14-.27-.21-.56-.42-1.1-.84-1.61-1.25-.06-.05-.11-.09-.17-.14-.49-.4-.97-.8-1.42-1.2-.05-.04-.1-.09-.15-.13-.46-.4-.89-.79-1.3-1.18-.08-.07-.16-.14-.23-.21-.39-.37-.76-.73-1.11-1.08-.08-.08-.16-.16-.24-.24-.34-.34-.65-.67-.95-.99-.07-.08-.15-.16-.22-.24-.29-.31-.56-.62-.82-.91-.06-.07-.12-.14-.18-.21-.25-.29-.49-.57-.71-.83-.04-.05-.08-.1-.12-.14-.21-.26-.42-.51-.59-.74-.02-.03-.04-.05-.06-.08-.18-.23-.34-.45-.49-.64-.02-.02-.03-.04-.05-.06-.15-.2-.27-.37-.37-.52,0-.01-.02-.03-.03-.04-.1-.15-.19-.28-.25-.37,0,0,0,0,0,0,.22-1.05.44-2.1.65-3.17.23-1.16.46-2.33.69-3.51,0-.02,0-.04.01-.06h0c-.06-9.4-3.19-17.91-8.8-25.7-7.24-10.05-14-20.54-22.16-29.79-7.98-9.05-17.38-16.86-26.34-25.01-2.16-1.96-5.07-3.11-7.66-4.6-7.26-4.19-15.6-3.99-23.47-5.7-2.79-.61-5.88-1.35-8.56-.76-7.87,1.73-15.64,3.97-23.37,6.24-9.28,2.73-16.71,8.06-22.43,15.99-7.51,10.41-12.55,21.51-12.84,34.44-.02.86-.02,1.73,0,2.61.11,4.17-.94,8.49-2.08,12.56-2.88,10.32-4.55,20.68-4.72,31.02-.17,10.34,1.18,20.67,4.35,30.92,11.45,37.06,32.63,68.73,56.82,98.49,4.44,5.46,8.83,7.37,14.38,6.62.02-.01.04-.02.06-.03.54-.28,1.08-.56,1.64-.86.33-.18.67-.37,1-.55.22-.12.45-.25.67-.37.44-.25.89-.51,1.34-.77.1-.06.21-.12.32-.19.51-.3,1.03-.61,1.55-.93,0,0,0,0,0,0,.19.2.39.38.61.55.22.17.47.32.73.44,32.19,15.26,118.44,58.09,130.86,72.86,13.91,16.53,44.54,25.94,80,36.83,32.24,9.9,68.77,21.13,101.76,39.96,14.76,8.43,25.41,22.05,30,38.37,2.81,9.98,6.94,23.23,12.41,37.25h-17.05v86.41h76.96c2.51,4.25,4,8.96,4.5,14.17,2.92,30.77-30.42,67.33-30.75,67.69-.04.05-.09.1-.13.15-1.56,1.85-38.1,45.79-23.74,83.82,7.29,19.31,26.25,33.17,56.45,41.39-4.42,3.5-10.43,10.21-16.02,22.94-3.32,7.55-3.4,14.07-.23,19.38,5.36,8.99,17.68,10.24,19.07,10.35.12,0,.24.01.37.01.07,0,.14,0,.21,0,.47-.02,11.64-.62,24.13-7.2,11.56-6.09,26.51-18.64,32.05-43.83.2-.92.19-1.69-.18-2.54-.22-.74-2.03-7.89,7.48-17.52.84-.85,3.31-2.97,6.44-5.64,19.05-16.3,77.03-65.91,121.73-134.28,25.35-38.78,42.75-77.85,51.71-116.14,10.92-46.66,9.42-92.7-4.46-136.86,0,0,0-.02-.01-.03,16.69-11.11,35.85-27.23,59.13-50.25,6.57-6.49,8.12-14.2,4.26-21.15Z"/>
  <g>
    <path class="st4" d="M531.58,895.16c-1.27-.14-10.08-1.29-13.46-6.95-.72-1.21-2.92-4.9.63-12.98,5.14-11.69,10.43-17.48,13.96-20.27l10.88-8.61-13.39-3.64c-27.9-7.59-45.31-20.07-51.74-37.1-12.76-33.78,21.28-75.31,22.51-76.8,1.96-2.13,35.73-39.45,32.54-73.06-1.17-12.36-7.22-22.65-17.98-30.6-13.68-10.11-26.41-27.26-37.83-50.97-10.04-20.85-17.09-42.77-21.23-57.49-5.09-18.1-16.91-33.21-33.27-42.55-33.66-19.22-70.59-30.57-103.17-40.58-34.41-10.57-64.12-19.7-76.7-34.65-15.6-18.54-123.69-70.15-132.77-74.46l-3.59-3.81-4.85,2.97c-1.67,1.02-3.33,1.97-4.94,2.83-.07,0-.15,0-.22,0-1.72,0-3.72-.51-6.72-4.19-28.85-35.49-45.99-65.13-55.57-96.14-5.57-18.02-5.43-36.99.43-58,1.2-4.31,2.47-9.36,2.34-14.63-.29-11.06,3.37-21.47,11.52-32.77,4.84-6.71,10.96-11.08,18.73-13.37,7.72-2.27,15.29-4.45,22.9-6.12.09-.02.29-.05.64-.05,1.2,0,2.87.37,4.49.72l.44.1c2.65.58,5.25.95,7.77,1.3,5.05.71,9.81,1.39,13.69,3.63.91.53,1.8.99,2.66,1.43,1.52.79,2.95,1.53,3.79,2.29,2.01,1.82,4.04,3.63,6.07,5.44,7.1,6.32,13.8,12.3,19.73,19.02,5.79,6.56,10.8,13.73,16.11,21.31,1.86,2.66,3.72,5.32,5.61,7.94,4.85,6.73,7.29,13.6,7.47,20.99-.39,2.01-.79,3.98-1.2,5.93l-.6,2.86,1.61,2.43c1.42,2.14,9.33,13.21,26,20.83,11.02,5.05,23.69,7.6,37.66,7.6,15.63,0,32.75-3.19,50.9-9.49,41.06-14.25,71.66-17.24,90.1-17.24,11.05,0,17.7,1.08,19.48,1.41l1.16.22,1.16-.17c2.75-.41,10.37-2.35,21.66-11.47,11.54-9.32,30.05-28.84,52.69-68.87,13.32-23.55,29.28-38.75,47.44-45.18,6.67-2.36,13.68-3.56,20.84-3.56s15.31,1.31,23.25,3.88c24.2,7.84,39.81,31.19,37.98,56.78l-.07.95c-.09,1.14-.18,2.87-.32,5.57-.64,12.51-2.14,41.79-8.32,72.94-3.14,15.84-7.1,30.23-11.78,42.76l-3.88,10.4,11.06-.98c.33-.03,1.02-.08,2.03-.08,4.48,0,16.46,1.01,30.85,10.39,25.43,16.57,45.57,49.58,59.87,98.13-.12,3.35,1.31,7.93,5.67,10.97,3.21,2.24,7.66,3.37,13.23,3.37,10.84,0,26.09-4.33,45.33-12.86,12.77-5.66,27.6-8.69,37.41-10.7,2.76-.56,5.14-1.05,7.03-1.5,2.49-.59,5.1-.9,7.77-.9,10.08,0,19.48,4.25,22.87,10.34,2.32,4.17,1.29,8.46-3.07,12.77-22.33,22.08-41.33,38.24-58.09,49.4l-4.4,2.93,1.76,5.49c13.36,42.74,14.77,87.42,4.18,132.7-8.77,37.49-25.85,75.81-50.76,113.9-44.15,67.53-101.56,116.65-120.42,132.79-3.82,3.27-5.86,5.02-6.87,6.04-11.49,11.64-9.98,21.51-9.31,24.11-5.07,22.15-18.18,33.16-28.33,38.51-10.31,5.43-19.71,6.29-21.05,6.39Z"/>
    <path class="st5" d="M547.95,77.66h0c6.75,0,13.85,1.19,21.09,3.54,21.11,6.84,34.74,27.24,33.15,49.6l-.07.91c-.1,1.32-.2,3.29-.33,5.79-.63,12.35-2.12,41.28-8.19,71.92-3.07,15.47-6.93,29.49-11.47,41.68l-7.76,20.8,22.12-1.97c.17-.01.65-.05,1.41-.05,3.86,0,14.21.9,27.03,9.26,23.84,15.53,42.91,46.93,56.7,93.31.19,5.05,2.52,11.4,8.66,15.68,4.41,3.07,10.21,4.63,17.23,4.63,11.99,0,27.74-4.4,48.17-13.46,12.07-5.36,26.46-8.29,35.98-10.24,2.82-.58,5.26-1.07,7.25-1.55,1.96-.47,4.03-.7,6.15-.7,8.14,0,14.91,3.43,16.75,6.74.32.57.91,1.64-1.87,4.39-22.01,21.76-40.67,37.65-57.05,48.55l-8.82,5.87,3.26,10.08.06.2c13.04,41.65,14.42,85.11,4.1,129.2-8.59,36.69-25.34,74.26-49.8,111.67-43.6,66.69-100.44,115.32-119.12,131.3-4.08,3.49-6.09,5.22-7.3,6.44-12.14,12.3-12.38,23.47-11.49,28.91-3.76,14.97-11.97,25.88-24.42,32.43-8.12,4.27-15.59,5.33-17.69,5.55-2.64-.37-6.47-1.7-7.54-3.5-.97-1.62.39-5.14,1.02-6.58,4.8-10.92,9.51-15.71,11.89-17.59l21.76-17.21-26.77-7.28c-25.61-6.96-41.43-18.01-47.03-32.82-11.18-29.61,19.29-67.35,21.25-69.73,3.17-3.48,37.64-42.29,34.22-78.31-1.37-14.42-8.36-26.39-20.79-35.57-12.75-9.43-24.76-25.71-35.69-48.38-9.82-20.39-16.73-41.9-20.8-56.35-5.59-19.88-18.57-36.48-36.54-46.74-34.33-19.6-71.65-31.07-104.59-41.19-31.96-9.82-62.15-19.09-73.39-32.46-4.59-5.46-15.81-14.89-62.15-39.59-25.54-13.61-54.2-27.76-71.79-36.13l-6.59-7-9.7,5.94c-.65.4-1.3.79-1.95,1.16-.24-.24-.52-.56-.85-.96-28.26-34.76-45.01-63.68-54.31-93.78-5.16-16.7-5-34.38.48-54.05,1.44-5.16,2.75-10.75,2.59-16.69-.25-9.58,2.89-18.37,10.2-28.49,3.95-5.48,8.72-8.89,15.02-10.74,7.39-2.17,14.63-4.26,21.82-5.86.67.08,1.89.35,2.73.53l.44.1c2.9.63,5.64,1.02,8.28,1.39,4.54.64,8.47,1.2,11.17,2.76,1.05.61,2.06,1.13,2.94,1.59.83.43,1.97,1.02,2.36,1.31,2.02,1.84,4.07,3.66,6.06,5.43,6.94,6.18,13.49,12.02,19.14,18.42,5.53,6.27,10.43,13.28,15.63,20.7,1.84,2.63,3.74,5.34,5.67,8.02,3.83,5.32,5.84,10.68,6.13,16.36-.31,1.56-.64,3.22-1.02,5.05l-1.19,5.72,3.22,4.87c2.25,3.4,10.99,15.13,28.92,23.33,11.94,5.47,25.59,8.24,40.57,8.24,16.41,0,34.3-3.32,53.19-9.88,40.14-13.93,69.9-16.85,87.81-16.85,10.45,0,16.57.99,18.2,1.29l2.31.43,2.33-.35c4.12-.62,12.86-3.12,25.03-12.95,12.01-9.71,31.2-29.88,54.38-70.87,12.46-22.04,27.16-36.18,43.69-42.03,5.92-2.09,12.14-3.16,18.51-3.16M547.95,63.66c-7.98,0-15.72,1.32-23.18,3.96-19.8,7.01-37.03,23.27-51.2,48.34-22.1,39.07-39.93,57.93-50.99,66.87-10.34,8.35-16.77,9.77-18.3,10-2.23-.42-9.29-1.53-20.76-1.53-19.11,0-50.5,3.09-92.4,17.63-17.47,6.06-33.84,9.1-48.6,9.1-12.9,0-24.59-2.32-34.75-6.97-15.07-6.9-22.05-16.78-23.07-18.33.46-2.22.92-4.46,1.35-6.74-.06-9.4-3.19-17.91-8.8-25.7-7.24-10.05-14-20.54-22.16-29.8-7.98-9.05-17.38-16.86-26.34-25.01-2.16-1.96-5.07-3.11-7.66-4.6-7.26-4.19-15.6-3.99-23.47-5.7-2.07-.45-4.31-.98-6.42-.98-.73,0-1.45.06-2.14.21-7.87,1.73-15.64,3.97-23.37,6.24-9.28,2.73-16.71,8.06-22.43,15.99-8.01,11.11-13.21,22.99-12.84,37.05.11,4.17-.94,8.49-2.08,12.56-5.75,20.64-6.71,41.43-.37,61.94,11.45,37.06,32.63,68.73,56.82,98.49,3.83,4.71,7.62,6.78,12.15,6.78.72,0,1.46-.05,2.23-.15,2.06-1.06,4.27-2.29,6.59-3.71.37.4.82.74,1.34.99,32.19,15.26,118.44,58.09,130.86,72.86,13.91,16.53,44.54,25.94,80,36.83,32.24,9.9,68.77,21.13,101.76,39.96,14.76,8.43,25.41,22.05,30,38.37,4.22,14.99,11.4,37.33,21.66,58.63,11.92,24.75,25.37,42.77,39.98,53.56,9.22,6.81,14.18,15.2,15.17,25.64,2.92,30.77-30.42,67.33-30.75,67.69-.04.05-.09.1-.13.15-1.56,1.85-38.1,45.79-23.74,83.82,7.29,19.31,26.25,33.17,56.45,41.39-4.42,3.5-10.43,10.21-16.02,22.94-3.32,7.55-3.4,14.07-.23,19.38,5.36,8.99,17.68,10.24,19.07,10.35.12,0,.24.01.37.01.07,0,.14,0,.21,0,.47-.02,11.64-.62,24.13-7.2,11.56-6.09,26.51-18.64,32.05-43.83.2-.92.19-1.69-.18-2.54-.22-.74-2.03-7.89,7.48-17.52.84-.85,3.31-2.97,6.44-5.64,19.05-16.3,77.03-65.91,121.73-134.28,25.35-38.78,42.75-77.85,51.71-116.14,10.92-46.66,9.42-92.7-4.46-136.86,0,0,0-.02-.01-.03,16.69-11.11,35.85-27.23,59.13-50.25,6.57-6.49,8.12-14.2,4.26-21.15-4.75-8.54-16.65-13.93-28.99-13.93-3.14,0-6.31.35-9.4,1.09-1.77.42-4.11.9-6.8,1.45-10.11,2.07-25.39,5.19-38.85,11.16-21.84,9.69-34.84,12.26-42.49,12.26-5.15,0-7.87-1.17-9.23-2.11-2.79-1.94-2.69-4.81-2.67-5.04.06-.58,0-1.17-.16-1.73-14.79-50.43-35.95-84.9-62.89-102.45-15.62-10.18-28.8-11.53-34.67-11.53-1.2,0-2.1.06-2.64.1,4.82-12.92,8.86-27.55,12.09-43.85,6.27-31.65,7.79-61.29,8.44-73.94.12-2.39.22-4.29.31-5.4l.07-.98c2.07-28.81-15.53-55.11-42.8-63.94-8.68-2.81-17.17-4.22-25.41-4.22h0Z"/>
  </g>
  <g>
    <ellipse class="st3" cx="349.38" cy="275.8" rx="28.22" ry="31.44"/>
    <path class="st0" d="M374.51,283.74c-2.61,10.6-11.27,17.19-19.34,14.72-8.07-2.47-12.5-13.06-9.89-23.66s11.27-17.19,19.34-14.72c8.07,2.47,12.5,13.06,9.89,23.66Z"/>
  </g>
  <path class="st1" d="M448.75,388.39s-45.8-48.02-14.62-59.07c28.76-10.19,22.54,37.79,22.54,37.79,0,0-2.67,18.44-7.91,21.28Z"/>
  <path class="st0" d="M834.05,366.73c-5.96-10.72-23.18-16.48-38.39-12.85-1.77.42-4.11.9-6.8,1.45-10.11,2.07-25.39,5.19-38.85,11.16-36.56,16.21-48.35,12.5-51.72,10.15-2.79-1.94-2.69-4.81-2.67-5.04.06-.58,0-1.17-.16-1.73-14.79-50.43-35.95-84.9-62.89-102.45-18.83-12.27-34.1-11.71-37.32-11.42,4.82-12.92,8.86-27.55,12.09-43.85,6.27-31.65,7.79-61.29,8.44-73.94.12-2.39.22-4.29.31-5.4l.07-.98c2.07-28.81-15.53-55.11-42.8-63.94-17.08-5.54-33.43-5.63-48.58-.26-19.8,7.01-37.03,23.27-51.2,48.34-22.1,39.07-39.93,57.93-50.99,66.87-10.34,8.35-16.77,9.77-18.3,10-5.95-1.11-46.11-7.17-113.16,16.1-32.75,11.37-61.57,12.1-83.35,2.14-16.31-7.47-23.15-18.44-23.21-18.55-1.28-2.12-4.04-2.8-6.16-1.53-2.13,1.28-2.83,4.04-1.55,6.17.32.53,8,13.11,26.56,21.81,16.75,7.84,46.07,13.94,90.66-1.53,68.62-23.82,108.63-15.74,109.02-15.66.31.07.63.1.96.1,3.2,0,32.58-2.29,77.37-81.48,13.07-23.12,28.68-38.02,46.37-44.28,13.25-4.69,27.65-4.57,42.81.34,23.32,7.56,38.37,30.07,36.6,54.74l-.07.92c-.1,1.24-.19,3.09-.32,5.65-3.91,76.18-18.68,129.08-43.89,157.21-6.28,7.01-14.94,10.62-25.74,10.74-19.41.23-42.9-11.33-59.81-29.41-1.7-1.81-4.55-1.91-6.36-.21-1.81,1.7-1.91,4.55-.21,6.36,18.39,19.65,44.18,32.26,65.88,32.26.2,0,.4,0,.6,0,13.23-.14,24.42-4.89,32.34-13.73,8.68-9.69,16.22-22.13,22.58-37.22.95.91,2.27,1.42,3.68,1.24.14-.01,14.4-1.64,32.5,10.44,30.63,20.43,48.56,63.47,58.26,96.27-.01,3.21,1.28,8.52,6.27,12.15,10.12,7.35,30.57,4.29,60.78-9.12,12.57-5.57,27.27-8.58,37-10.57,2.78-.57,5.18-1.06,7.1-1.52,9.9-2.37,24.01.53,28.43,8.47.68,1.23,2.75,4.96-2.72,10.38-78.78,77.92-106.45,73.9-156.66,66.6-2.46-.36-4.74,1.35-5.1,3.81-.36,2.46,1.35,4.74,3.81,5.1,13.69,1.99,25.94,3.77,38.09,3.77,18.38,0,36.54-4.07,59.18-17.64,23.61,77.62,7.84,159.4-46.89,243.11-44,67.29-101.24,116.27-120.05,132.36-3.67,3.14-5.89,5.04-6.99,6.16-10.25,10.38-11.2,20.33-9.95,25.57-9.19,38.94-43.45,42.56-47.27,42.84-2.73-.31-9.36-1.86-11.8-5.98-1.58-2.66-1.32-6.41.75-11.13,8.18-18.61,16.63-21.53,16.71-21.55l-.12.03-.79-3.06c5.36,1.21,11.02,2.26,17,3.15.22.03.45.05.67.05,2.19,0,4.11-1.6,4.44-3.84.37-2.46-1.33-4.75-3.79-5.11-41.44-6.17-66.46-19.89-74.36-40.78-12.29-32.48,20.62-72.96,22.14-74.8,2.37-2.59,36.26-40.25,33.02-74.54-1.23-12.96-7.55-23.74-18.78-32.04-30.87-22.82-49.8-77.08-58.33-107.39-5.24-18.61-17.38-34.14-34.2-43.75-26.33-15.04-54.59-25.25-81.23-33.78,49.85-1.06,84.67-13.34,103.69-36.66,22.22-27.24,13.95-58.97,13.59-60.31-.65-2.4-3.12-3.82-5.52-3.17-2.4.65-3.82,3.12-3.17,5.52.08.28,7.45,28.57-11.88,52.27-9.2,11.28-23.06,19.84-41.2,25.45-22.48,6.94-51.65,9.37-86.7,7.21-30.29-9.38-55.79-18.07-66.92-31.3-16.22-19.27-129.1-72.92-133.9-75.19-2.25-1.06-4.93-.11-5.99,2.14s-.11,4.93,2.14,5.99c32.19,15.26,118.44,58.09,130.86,72.86,13.91,16.53,44.54,25.94,80,36.83,32.24,9.9,68.77,21.13,101.76,39.96,14.76,8.43,25.41,22.05,30,38.37,4.22,14.99,11.4,37.33,21.66,58.63,11.92,24.75,25.37,42.77,39.98,53.56,9.22,6.81,14.18,15.2,15.17,25.64,2.92,30.77-30.42,67.33-30.75,67.69-.04.05-.09.1-.13.15-1.56,1.85-38.1,45.79-23.74,83.82,7.29,19.31,26.25,33.17,56.45,41.39-4.42,3.5-10.43,10.21-16.02,22.94-3.32,7.55-3.4,14.07-.23,19.38,5.36,8.99,17.68,10.24,19.07,10.35.12,0,.24.01.37.01.07,0,.14,0,.21,0,.47-.02,11.64-.62,24.13-7.2,11.56-6.09,26.51-18.64,32.05-43.83.2-.92.19-1.69-.18-2.54-.22-.74-2.03-7.89,7.48-17.52.84-.85,3.31-2.97,6.44-5.64,19.05-16.3,77.03-65.91,121.73-134.28,25.35-38.78,42.75-77.85,51.71-116.14,10.92-46.66,9.42-92.7-4.46-136.86,0,0,0-.02-.01-.03,16.69-11.11,35.85-27.23,59.13-50.25,6.57-6.49,8.12-14.2,4.26-21.15Z"/>
  <path class="st0" d="M84.92,326.84c4.87,5.91,13.37,7.23,19.94,3.3,3.58-2.14,7.44-4.75,11.48-7.91,9.65-8.12,72.31-98.45,69.7-136.25-.06-9.4-4.57-17.09-8.8-25.7-19.92-40.51-47.66-57.17-56.16-59.41-10.17-2.67-39.31-17.1-77.83,15.76-19,16.21-25.6,59.81-15.29,111.55,7.58,38.04,32.63,68.73,56.82,98.49.04.05.09.11.13.16Z"/>
  <path class="st5" d="M130.94,197.36c-.99,0-1.95-.54-2.45-1.48-1.19-2.24-3.97-7.52-4.23-8.1-.1-.22-.2-.43-.3-.64-.76-1.58-1.71-3.54-.54-6.82.8-2.24,4.66-5.02,11.46-8.27,1.38-.66,3.03-.08,3.7,1.31.66,1.38.07,3.04-1.31,3.69-3.91,1.87-7.9,4.3-8.69,5.28-.33.97-.2,1.23.36,2.4.12.25.24.51.36.78.21.44,2.26,4.34,4.07,7.77.71,1.35.2,3.03-1.15,3.75-.41.22-.86.32-1.29.32ZM95.44,196.97c.68,1.37,2.35,1.93,3.72,1.24,3.48-1.74,7.42-3.69,7.87-3.89.28-.12.54-.23.79-.35,1.19-.54,1.45-.66,2.41-.31.97.81,3.3,4.85,5.08,8.81.63,1.4,2.27,2.02,3.66,1.39,1.4-.63,2.02-2.27,1.39-3.66-3.09-6.88-5.78-10.81-8-11.65-3.25-1.25-5.24-.35-6.84.38-.21.09-.42.19-.65.28-.59.25-5.93,2.91-8.2,4.04-.95.48-1.51,1.42-1.53,2.42-.01.44.08.88.29,1.3ZM97.35,160.75c-1.36.7-1.89,2.37-1.19,3.73,1.79,3.45,3.8,7.37,4,7.81.12.27.24.53.36.78.56,1.18.68,1.44.34,2.41-.8.98-4.81,3.37-8.74,5.2-1.39.65-1.99,2.3-1.34,3.68.65,1.39,2.3,1.99,3.68,1.34,6.84-3.18,10.72-5.93,11.54-8.16,1.2-3.27.27-5.24-.47-6.83-.1-.21-.2-.42-.29-.64-.26-.59-2.99-5.89-4.16-8.14-.49-.94-1.44-1.49-2.44-1.5-.44,0-.88.1-1.3.31ZM134.15,161.17c-.67-1.38-2.33-1.95-3.71-1.28-3.49,1.7-7.46,3.62-7.9,3.82-.28.11-.54.23-.79.34-1.19.53-1.46.64-2.42.28-.96-.82-3.26-4.89-4.99-8.86-.61-1.4-2.25-2.04-3.65-1.43-1.41.62-2.04,2.25-1.43,3.65,3.02,6.91,5.68,10.86,7.88,11.73,3.24,1.28,5.24.4,6.84-.31.21-.09.43-.19.65-.28.59-.24,5.96-2.85,8.24-3.96.96-.47,1.52-1.41,1.56-2.4.01-.44-.07-.88-.28-1.3Z"/>
  <g>
    <rect class="st0" x="509.89" y="577.44" width="21.6" height="21.6" transform="translate(1041.39 1176.49) rotate(-180)"/>
    <rect class="st5" x="488.29" y="577.44" width="21.6" height="21.6" transform="translate(998.18 1176.49) rotate(-180)"/>
    <rect class="st0" x="466.69" y="577.44" width="21.6" height="21.6" transform="translate(954.97 1176.49) rotate(-180)"/>
    <rect class="st5" x="445.08" y="577.44" width="21.6" height="21.6" transform="translate(911.77 1176.49) rotate(-180)"/>
    <rect class="st5" x="509.89" y="599.05" width="21.6" height="21.6" transform="translate(1041.39 1219.7) rotate(-180)"/>
    <rect class="st0" x="488.29" y="599.05" width="21.6" height="21.6" transform="translate(998.18 1219.7) rotate(-180)"/>
    <rect class="st5" x="466.69" y="599.05" width="21.6" height="21.6" transform="translate(954.97 1219.7) rotate(-180)"/>
    <rect class="st0" x="445.08" y="599.05" width="21.6" height="21.6" transform="translate(911.77 1219.7) rotate(-180)"/>
    <rect class="st0" x="509.89" y="620.65" width="21.6" height="21.6" transform="translate(1041.39 1262.9) rotate(-180)"/>
    <rect class="st5" x="488.29" y="620.65" width="21.6" height="21.6" transform="translate(998.18 1262.9) rotate(-180)"/>
    <rect class="st0" x="466.69" y="620.65" width="21.6" height="21.6" transform="translate(954.97 1262.9) rotate(-180)"/>
    <rect class="st5" x="445.08" y="620.65" width="21.6" height="21.6" transform="translate(911.77 1262.9) rotate(-180)"/>
    <rect class="st5" x="509.89" y="555.84" width="21.6" height="21.6" transform="translate(1041.39 1133.28) rotate(-180)"/>
    <rect class="st0" x="488.29" y="555.84" width="21.6" height="21.6" transform="translate(998.18 1133.28) rotate(-180)"/>
    <rect class="st5" x="466.69" y="555.84" width="21.6" height="21.6" transform="translate(954.97 1133.28) rotate(-180)"/>
    <rect class="st0" x="445.08" y="555.84" width="21.6" height="21.6" transform="translate(911.77 1133.28) rotate(-180)"/>
  </g>
</svg>